<svg width="138" height="46" fill="none" xmlns="http://www.w3.org/2000/svg"><path d="M0 10.5c0-3.262 0-4.892.533-6.179A7 7 0 014.32.533C5.608 0 7.238 0 10.5 0h117c3.262 0 4.892 0 6.179.533a6.998 6.998 0 013.788 3.788C138 5.608 138 7.238 138 10.5v25c0 3.262 0 4.892-.533 6.179a6.999 6.999 0 01-3.788 3.788c-1.287.533-2.917.533-6.179.533h-117c-3.262 0-4.892 0-6.179-.533A7 7 0 01.533 41.68C0 40.392 0 38.762 0 35.5v-25z" fill="#0C0D10"/><path d="M93.755 22.081v2.635h-1.652v1.727h1.652v5.871c0 2.005.907 2.807 3.188 2.807.401 0 .783-.048 1.117-.105v-1.709c-.286.029-.468.048-.783.048-1.021 0-1.47-.478-1.47-1.566v-5.346h2.253v-1.727h-2.253V22.08h-2.052zm10.117 13.183c3.035 0 4.897-2.033 4.897-5.403 0-3.35-1.871-5.393-4.897-5.393-3.036 0-4.907 2.042-4.907 5.393 0 3.37 1.862 5.403 4.907 5.403zm0-1.823c-1.785 0-2.788-1.308-2.788-3.58 0-2.253 1.003-3.57 2.788-3.57 1.775 0 2.787 1.317 2.787 3.57 0 2.262-1.012 3.58-2.787 3.58zm6.49 1.622h2.052v-6.138c0-1.46 1.098-2.443 2.654-2.443.362 0 .973.067 1.145.124v-2.024c-.219-.057-.611-.086-.916-.086-1.356 0-2.511.745-2.807 1.766h-.152v-1.594h-1.976v10.395zm10.947-8.849c1.518 0 2.511 1.06 2.559 2.692h-5.251c.115-1.622 1.174-2.692 2.692-2.692zm2.549 6.043c-.382.811-1.231 1.26-2.472 1.26-1.642 0-2.702-1.155-2.769-2.978v-.115h7.341v-.716c0-3.264-1.747-5.24-4.639-5.24-2.931 0-4.792 2.11-4.792 5.431 0 3.322 1.823 5.365 4.801 5.365 2.377 0 4.038-1.146 4.506-3.007h-1.976zm-43.562-1.032c.158 2.552 2.285 4.185 5.451 4.185 3.384 0 5.501-1.712 5.501-4.443 0-2.147-1.207-3.334-4.135-4.017l-1.573-.386c-1.86-.435-2.613-1.019-2.613-2.038 0-1.286 1.168-2.127 2.92-2.127 1.661 0 2.81.821 3.017 2.137h2.157c-.129-2.404-2.246-4.096-5.145-4.096-3.117 0-5.195 1.692-5.195 4.235 0 2.097 1.178 3.344 3.76 3.947l1.84.446c1.89.445 2.721 1.098 2.721 2.186 0 1.267-1.306 2.187-3.087 2.187-1.91 0-3.235-.86-3.423-2.216h-2.196zm-21.261-6.729c-1.413 0-2.634.707-3.264 1.89h-.153v-1.718h-1.976v13.851h2.052v-5.03h.162c.545 1.097 1.719 1.746 3.198 1.746 2.625 0 4.296-2.071 4.296-5.374 0-3.303-1.67-5.365-4.315-5.365zm-.582 8.897c-1.718 0-2.797-1.356-2.797-3.523 0-2.176 1.079-3.532 2.806-3.532 1.738 0 2.778 1.327 2.778 3.523 0 2.205-1.04 3.532-2.787 3.532zm12.078-8.897c-1.412 0-2.634.707-3.264 1.89h-.153v-1.718h-1.976v13.851h2.052v-5.03h.163c.544 1.097 1.718 1.746 3.198 1.746 2.625 0 4.295-2.071 4.295-5.374 0-3.303-1.67-5.365-4.315-5.365zm-.582 8.897c-1.718 0-2.797-1.356-2.797-3.523 0-2.176 1.079-3.532 2.807-3.532 1.737 0 2.778 1.327 2.778 3.523 0 2.205-1.04 3.532-2.788 3.532zm-19.989 1.67h2.354L47.16 20.786h-2.385L39.62 35.063h2.276l1.316-3.789h5.441l1.306 3.79zM45.852 23.38h.169l2.068 6.035h-4.314l2.077-6.035zm-4.853-13.362v6.887h2.486c2.053 0 3.241-1.265 3.241-3.465 0-2.167-1.198-3.422-3.24-3.422h-2.487zm1.069.973h1.298c1.427 0 2.272.907 2.272 2.463 0 1.58-.83 2.477-2.272 2.477h-1.298v-4.94zm8.298 6.014c1.518 0 2.449-1.016 2.449-2.701 0-1.676-.936-2.697-2.449-2.697-1.518 0-2.453 1.021-2.453 2.697 0 1.684.93 2.701 2.453 2.701zm0-.911c-.892 0-1.394-.654-1.394-1.79 0-1.127.502-1.785 1.394-1.785.888 0 1.394.658 1.394 1.785 0 1.13-.506 1.79-1.394 1.79zm10.374-4.387h-1.026l-.925 3.966h-.082l-1.069-3.966h-.983l-1.07 3.966h-.075l-.931-3.966h-1.04l1.431 5.198h1.055l1.07-3.828h.08l1.074 3.828h1.064l1.428-5.198zm1.182 5.198h1.027v-3.04c0-.812.482-1.318 1.24-1.318.76 0 1.122.415 1.122 1.25v3.108h1.026V13.54c0-1.236-.64-1.933-1.799-1.933-.783 0-1.298.348-1.551.926h-.077v-.826h-.988v5.198zm6.032 0h1.026V9.679h-1.026v7.226zm4.886.1c1.517 0 2.448-1.016 2.448-2.701 0-1.676-.936-2.697-2.449-2.697-1.518 0-2.453 1.021-2.453 2.697 0 1.684.93 2.701 2.453 2.701zm0-.911c-.893 0-1.395-.654-1.395-1.79 0-1.127.502-1.785 1.394-1.785.888 0 1.394.658 1.394 1.785 0 1.13-.506 1.79-1.394 1.79zm5.505.033c-.558 0-.964-.272-.964-.74 0-.458.325-.702 1.04-.75l1.27-.08v.434c0 .644-.573 1.136-1.346 1.136zm-.262.864c.682 0 1.25-.296 1.56-.816h.082v.73h.988v-3.551c0-1.098-.735-1.747-2.038-1.747-1.18 0-2.02.573-2.124 1.465h.992c.115-.367.511-.577 1.084-.577.701 0 1.064.31 1.064.859v.449l-1.408.08c-1.236.077-1.933.616-1.933 1.552 0 .95.73 1.556 1.733 1.556zm6.112-.001c.716 0 1.322-.338 1.632-.906h.081v.821h.984V9.679h-1.026v2.854h-.077c-.282-.573-.883-.912-1.594-.912-1.313 0-2.157 1.04-2.157 2.683 0 1.646.835 2.687 2.157 2.687zm.291-4.447c.86 0 1.398.682 1.398 1.766 0 1.088-.534 1.76-1.398 1.76-.869 0-1.389-.663-1.389-1.765 0-1.093.525-1.761 1.39-1.761zm9.06 4.462c1.518 0 2.449-1.016 2.449-2.701 0-1.676-.936-2.697-2.449-2.697-1.518 0-2.453 1.021-2.453 2.697 0 1.684.93 2.701 2.453 2.701zm0-.911c-.893 0-1.394-.654-1.394-1.79 0-1.127.501-1.785 1.394-1.785.888 0 1.394.658 1.394 1.785 0 1.13-.506 1.79-1.394 1.79zm3.807.811h1.026v-3.04c0-.812.482-1.318 1.241-1.318.759 0 1.122.415 1.122 1.25v3.108h1.026V13.54c0-1.236-.64-1.933-1.8-1.933-.782 0-1.298.348-1.55.926h-.077v-.826h-.988v5.198zm9.141-6.491v1.317h-.826v.864h.826v2.935c0 1.003.454 1.404 1.594 1.404.201 0 .392-.024.559-.053v-.854c-.143.014-.234.024-.392.024-.51 0-.735-.24-.735-.783v-2.673h1.127v-.864h-1.127v-1.317h-1.026zm3.53 6.491h1.026v-3.036c0-.787.468-1.317 1.308-1.317.726 0 1.112.42 1.112 1.25v3.103h1.026V13.55c0-1.237-.682-1.938-1.789-1.938-.783 0-1.332.348-1.585.93h-.081V9.68h-1.017v7.226zm8.174-4.425c.759 0 1.256.53 1.28 1.346h-2.626c.058-.811.587-1.346 1.346-1.346zm1.275 3.022c-.191.405-.616.63-1.236.63-.821 0-1.351-.578-1.385-1.49v-.057h3.671v-.358c0-1.632-.874-2.62-2.32-2.62-1.465 0-2.396 1.055-2.396 2.716 0 1.66.912 2.682 2.401 2.682 1.188 0 2.019-.573 2.253-1.503h-.988zm-90.989 7.844a5.737 5.737 0 012.71-4.775 5.897 5.897 0 00-4.59-2.481c-1.93-.203-3.803 1.155-4.787 1.155-1.003 0-2.518-1.135-4.15-1.102a6.163 6.163 0 00-5.143 3.137c-2.224 3.851-.565 9.51 1.565 12.623 1.066 1.524 2.312 3.227 3.942 3.166 1.595-.066 2.19-1.017 4.116-1.017 1.908 0 2.467 1.017 4.13.979 1.711-.028 2.79-1.531 3.818-3.07a12.606 12.606 0 001.747-3.556 5.548 5.548 0 01-3.358-5.059zm-3.141-9.303a5.603 5.603 0 001.282-4.014 5.701 5.701 0 00-3.69 1.908 5.38 5.38 0 00-1.314 3.866 4.77 4.77 0 003.722-1.76z" fill="#fff"/><path d="M4.321 45.467l-.382.924.382-.924zM.533 41.68l-.924.383.924-.383zm136.934 0l.924.383-.924-.383zm-3.788 3.788l.382.924-.382-.924zm0-44.934l-.383.924.383-.924zm3.788 3.788l-.924.383.924-.383zM10.5 1h117v-2h-117v2zM137 10.5v25h2v-25h-2zM127.5 45h-117v2h117v-2zM1 35.5v-25h-2v25h2zm9.5 9.5c-1.644 0-2.828 0-3.762-.064-.925-.063-1.533-.185-2.034-.393l-.765 1.848c.785.325 1.636.47 2.663.54 1.018.07 2.28.069 3.898.069v-2zM-1 35.5c0 1.617 0 2.88.069 3.898.07 1.027.215 1.878.54 2.663l1.848-.765c-.208-.5-.33-1.109-.393-2.034C1.001 38.328 1 37.145 1 35.5h-2zm5.704 9.043a6 6 0 01-3.247-3.247l-1.848.766a8 8 0 004.33 4.329l.765-1.848zM137 35.5c0 1.645-.001 2.828-.064 3.762-.063.925-.185 1.533-.393 2.034l1.848.766c.325-.786.47-1.637.54-2.664.07-1.018.069-2.28.069-3.898h-2zM127.5 47c1.617 0 2.88 0 3.898-.069 1.027-.07 1.878-.215 2.663-.54l-.765-1.848c-.501.208-1.109.33-2.034.393-.934.063-2.118.064-3.762.064v2zm9.043-5.704a6 6 0 01-3.247 3.247l.765 1.848a7.998 7.998 0 004.33-4.33l-1.848-.765zM127.5 1c1.644 0 2.828 0 3.762.064.925.063 1.533.185 2.034.393l.765-1.848c-.785-.325-1.636-.47-2.663-.54C130.38-1.001 129.117-1 127.5-1v2zm11.5 9.5c0-1.617.001-2.88-.069-3.898-.07-1.027-.215-1.878-.54-2.663l-1.848.765c.208.5.33 1.109.393 2.034.063.934.064 2.118.064 3.762h2zm-5.704-9.043a6 6 0 013.247 3.247l1.848-.765a7.998 7.998 0 00-4.33-4.33l-.765 1.848zM10.5-1c-1.617 0-2.88 0-3.898.069-1.027.07-1.878.215-2.663.54l.765 1.848c.5-.208 1.109-.33 2.034-.393C7.672 1.001 8.856 1 10.5 1v-2zM1 10.5c0-1.644 0-2.828.064-3.762.063-.925.185-1.533.393-2.034l-1.848-.765c-.325.785-.47 1.636-.54 2.663C-1.001 7.62-1 8.882-1 10.5h2zM3.939-.391a8 8 0 00-4.33 4.33l1.848.765a6 6 0 013.247-3.247L3.939-.391z" fill="#A6A6A6"/></svg>