<svg width="108" height="72" fill="none" xmlns="http://www.w3.org/2000/svg"><path d="M90.517 6.365a21.869 21.869 0 00-7.093-4.71 21.98 21.98 0 00-16.735 0 21.87 21.87 0 00-7.093 4.71l-4.212 4.186-4.213-4.186A21.935 21.935 0 0035.71.002a21.935 21.935 0 00-15.46 6.363 21.655 21.655 0 00-6.405 15.362A21.655 21.655 0 0020.25 37.09l4.213 4.186L55.383 72l30.921-30.724 4.213-4.186a21.711 21.711 0 004.741-7.048 21.6 21.6 0 000-16.629 21.712 21.712 0 00-4.74-7.048z" fill="url(#paint0_linear)"/><g filter="url(#filter0_b)"><path d="M45 52.615a4.5 4.5 0 01-3.892-2.25l-7.673-13.792-4.905 7.358a4.499 4.499 0 01-3.78 1.935H4.5a4.5 4.5 0 110-9h17.843l7.672-11.497a4.5 4.5 0 017.672.315L45 39.116l11.767-20.25a4.5 4.5 0 013.983-2.25 4.5 4.5 0 013.87 2.25l10.777 18 4.5-3.555a4.5 4.5 0 012.79-.945H103.5a4.501 4.501 0 010 9H84.263l-7.313 5.782a4.5 4.5 0 01-6.75-1.215l-9.45-15.952-11.858 20.385A4.5 4.5 0 0145 52.616z" fill="#fff" fill-opacity=".2"/></g><defs><linearGradient id="paint0_linear" x1="13.846" y1="33.6" x2="94.931" y2="34.017" gradientUnits="userSpaceOnUse"><stop stop-color="#FF7070"/><stop offset="1" stop-color="#FF7070" stop-opacity=".65"/></linearGradient><filter id="filter0_b" x="-25" y="-8.384" width="158" height="86" filterUnits="userSpaceOnUse" color-interpolation-filters="sRGB"><feFlood flood-opacity="0" result="BackgroundImageFix"/><feGaussianBlur in="BackgroundImage" stdDeviation="12.5"/><feComposite in2="SourceAlpha" operator="in" result="effect1_backgroundBlur"/><feBlend in="SourceGraphic" in2="effect1_backgroundBlur" result="shape"/></filter></defs></svg>