<svg width="135" height="32" fill="none" xmlns="http://www.w3.org/2000/svg"><path fill-rule="evenodd" clip-rule="evenodd" d="M.698 2.115c0-.584.27-1.082.81-1.495C2.048.207 2.698 0 3.462 0h128.701c.763 0 1.414.207 1.954.62.539.413.809.911.809 1.495 0 .585-.27 1.083-.809 1.496-.54.413-1.191.62-1.954.62H3.462c-.763 0-1.415-.207-1.954-.62-.54-.413-.81-.911-.81-1.496zm0 13.539c0-.606.226-1.124.677-1.552a2.289 2.289 0 011.635-.643h107.678a2.29 2.29 0 011.635.643c.451.428.677.946.677 1.552 0 .606-.226 1.123-.677 1.552a2.29 2.29 0 01-1.635.643H3.01a2.289 2.289 0 01-1.635-.643 2.063 2.063 0 01-.677-1.552zm0 13.813c0-.606.19-1.123.569-1.552.379-.429.837-.643 1.373-.643h90.418c.536 0 .994.214 1.373.643.38.429.569.946.569 1.552 0 .606-.19 1.124-.569 1.552-.379.429-.837.643-1.373.643H2.64c-.536 0-.994-.214-1.373-.643-.38-.428-.569-.946-.569-1.552z" fill="#E4F3FF"/></svg>