<svg width="32" height="33" fill="none" xmlns="http://www.w3.org/2000/svg"><path fill-rule="evenodd" clip-rule="evenodd" d="M16 .392c-8.837 0-16 7.164-16 16 0 8.837 7.163 16 16 16s16-7.163 16-16c0-8.836-7.163-16-16-16zM12.482 7.91c.91-.041 1.201-.051 3.519-.051h-.003c2.319 0 2.608.01 3.519.051.908.042 1.528.186 2.072.397a4.17 4.17 0 011.512.984c.474.474.766.95.984 1.512.21.542.354 1.162.397 2.07.04.91.052 1.202.052 3.52 0 2.317-.011 2.607-.052 3.517-.043.908-.187 1.529-.397 2.071a4.187 4.187 0 01-.985 1.512 4.169 4.169 0 01-1.51.985c-.543.21-1.164.355-2.072.396-.91.042-1.2.052-3.518.052-2.318 0-2.608-.01-3.518-.052-.909-.041-1.529-.185-2.072-.396a4.177 4.177 0 01-1.511-.985 4.182 4.182 0 01-.984-1.512c-.211-.542-.355-1.163-.397-2.071-.04-.91-.051-1.2-.051-3.518 0-2.317.01-2.608.051-3.518.041-.909.185-1.529.397-2.072A4.18 4.18 0 018.9 9.291a4.17 4.17 0 011.511-.984c.543-.211 1.163-.355 2.071-.397z" fill="#646464"/><path fill-rule="evenodd" clip-rule="evenodd" d="M15.236 9.396H16c2.278 0 2.548.008 3.448.05.832.037 1.284.176 1.585.293.398.155.682.34.98.638.299.299.484.583.639.982.117.3.256.752.294 1.584.04.9.05 1.17.05 3.447s-.01 2.547-.05 3.447c-.038.832-.177 1.284-.294 1.584-.155.398-.34.682-.639.98a2.64 2.64 0 01-.98.639c-.3.117-.753.256-1.585.294-.9.04-1.17.05-3.448.05-2.279 0-2.549-.01-3.448-.05-.832-.039-1.284-.178-1.585-.295a2.642 2.642 0 01-.981-.638 2.645 2.645 0 01-.639-.98c-.116-.301-.256-.753-.294-1.585-.04-.9-.049-1.17-.049-3.448 0-2.28.009-2.548.05-3.447.037-.832.177-1.284.293-1.585.155-.398.34-.682.639-.981.299-.299.583-.484.981-.639.301-.117.753-.256 1.585-.294.787-.036 1.092-.046 2.682-.048v.002zm5.32 1.417a1.024 1.024 0 100 2.048 1.024 1.024 0 000-2.048zm-8.937 5.578a4.382 4.382 0 118.765 0 4.382 4.382 0 01-8.765 0z" fill="#646464"/><path fill-rule="evenodd" clip-rule="evenodd" d="M16 13.547a2.845 2.845 0 110 5.69 2.845 2.845 0 010-5.69z" fill="#646464"/></svg>