<svg width="31" height="31" fill="none" xmlns="http://www.w3.org/2000/svg"><circle cx="15.533" cy="15.467" r="15.467" fill="#0077B5"/><path fill-rule="evenodd" clip-rule="evenodd" d="M11.953 8.554c0 .87-.664 1.575-1.7 1.575-.997 0-1.66-.705-1.64-1.575-.02-.914.643-1.598 1.66-1.598 1.016 0 1.66.684 1.68 1.598zM8.697 21.517V11.374h3.152v10.143H8.697zm5.679-6.906a67.58 67.58 0 00-.083-3.236h2.738l.145 1.39h.063c.414-.643 1.451-1.617 3.131-1.617 2.074 0 3.63 1.369 3.63 4.354v6.017h-3.152v-5.622c0-1.307-.456-2.199-1.597-2.199-.872 0-1.39.602-1.597 1.182-.083.208-.124.498-.124.79v5.849h-3.153V14.61h-.001z" fill="#fff"/></svg>