<svg width="201" height="47" fill="none" xmlns="http://www.w3.org/2000/svg"><path d="M3.227 34a.732.732 0 01-.538-.221.732.732 0 01-.221-.538V12.646c0-.232.063-.421.19-.57a.77.77 0 01.569-.22h2.879c.232 0 .41.073.537.22a.771.771 0 01.222.57v8.162h9.332v-8.162c0-.232.063-.421.19-.57a.771.771 0 01.57-.22h2.846a.77.77 0 01.57.22.77.77 0 01.221.57v20.595a.77.77 0 01-.221.57.844.844 0 01-.57.189h-2.847a.732.732 0 01-.537-.221.732.732 0 01-.222-.538v-8.478H6.865v8.478c0 .21-.074.39-.222.538-.126.147-.305.221-.537.221h-2.88zm24.046 0a.732.732 0 01-.537-.221.732.732 0 01-.222-.538V12.646c0-.232.063-.421.19-.57a.771.771 0 01.57-.22h13.919a.77.77 0 01.57.22.771.771 0 01.22.57v2.088a.77.77 0 01-.22.57.844.844 0 01-.57.19H30.785v5.599h9.712a.77.77 0 01.57.221c.147.127.22.306.22.538v1.962a.77.77 0 01-.22.569.844.844 0 01-.57.19h-9.712v5.789h10.66c.233 0 .423.074.57.221a.77.77 0 01.222.57v2.088a.77.77 0 01-.222.57.845.845 0 01-.57.189H27.274zm18.56 0a.717.717 0 01-.474-.19.644.644 0 01-.19-.474l.063-.285 7.624-20.405c.148-.527.517-.79 1.107-.79h3.448c.549 0 .918.263 1.108.79l7.624 20.405a.96.96 0 01.031.285.64.64 0 01-.19.474.607.607 0 01-.442.19h-2.753c-.274 0-.485-.063-.632-.19a.86.86 0 01-.285-.411l-1.487-3.86H50.99l-1.487 3.86c-.169.4-.475.601-.918.601h-2.752zm13.445-8.099l-3.606-9.775-3.575 9.775h7.18zM70.887 34a.732.732 0 01-.538-.221.732.732 0 01-.221-.538V12.615c0-.232.074-.412.221-.538a.732.732 0 01.538-.222h2.942c.232 0 .411.074.538.222.147.127.221.306.221.538v17.62h10.029a.77.77 0 01.569.222.77.77 0 01.221.57v2.214a.77.77 0 01-.221.57.844.844 0 01-.57.189H70.888zm20.639 0a.732.732 0 01-.538-.221.732.732 0 01-.221-.538V15.747h-5.853a.732.732 0 01-.538-.222.732.732 0 01-.221-.538v-2.34c0-.233.063-.422.19-.57a.771.771 0 01.57-.222h16.133c.232 0 .422.074.569.222a.77.77 0 01.222.57v2.34c0 .211-.074.39-.222.538a.769.769 0 01-.569.222h-5.82V33.24c0 .21-.075.39-.222.538a.77.77 0 01-.57.221h-2.91zm22.663.316c-2.911 0-5.167-.748-6.77-2.246-1.582-1.497-2.426-3.606-2.531-6.327a85.075 85.075 0 01-.032-2.784 89.7 89.7 0 01.032-2.847c.105-2.7.96-4.798 2.562-6.295 1.624-1.519 3.87-2.278 6.739-2.278 1.877 0 3.511.327 4.903.98 1.392.633 2.468 1.509 3.227 2.627.759 1.096 1.16 2.34 1.202 3.732v.064a.57.57 0 01-.221.443.673.673 0 01-.443.158h-3.006c-.253 0-.443-.053-.569-.158-.127-.106-.232-.306-.316-.601-.338-1.33-.897-2.257-1.677-2.784-.78-.549-1.824-.823-3.132-.823-3.037 0-4.619 1.698-4.745 5.093-.021.57-.032 1.445-.032 2.626 0 1.181.011 2.078.032 2.69.126 3.395 1.708 5.092 4.745 5.092 1.308 0 2.352-.274 3.132-.822.801-.549 1.36-1.477 1.677-2.784.063-.295.158-.496.284-.601.148-.106.348-.158.601-.158h3.006c.189 0 .348.063.474.19a.516.516 0 01.19.474c-.042 1.392-.443 2.647-1.202 3.765-.759 1.096-1.835 1.972-3.227 2.625-1.392.633-3.026.95-4.903.95zM126.665 34a.716.716 0 01-.474-.19.642.642 0 01-.19-.474l.063-.285 7.624-20.405c.148-.527.517-.79 1.107-.79h3.449c.548 0 .917.263 1.107.79l7.624 20.405a.96.96 0 01.032.285c0 .19-.064.348-.19.474a.608.608 0 01-.443.19h-2.752c-.275 0-.485-.063-.633-.19a.857.857 0 01-.285-.411l-1.487-3.86h-9.395l-1.487 3.86c-.169.4-.475.601-.917.601h-2.753zm13.445-8.099l-3.606-9.775-3.575 9.775h7.181zM151.719 34a.733.733 0 01-.538-.221.734.734 0 01-.221-.538V12.646c0-.232.063-.421.19-.57a.769.769 0 01.569-.22h8.194c2.573 0 4.587.6 6.042 1.803 1.476 1.202 2.214 2.91 2.214 5.125 0 1.54-.379 2.836-1.138 3.89-.739 1.034-1.772 1.783-3.101 2.247l4.619 8.067a.791.791 0 01.095.348c0 .19-.074.348-.221.474a.61.61 0 01-.443.19h-2.879c-.338 0-.601-.074-.791-.221a2.253 2.253 0 01-.475-.633l-4.08-7.498h-4.398v7.593c0 .21-.074.39-.221.538-.127.147-.306.221-.538.221h-2.879zm8.099-11.926c1.265 0 2.214-.285 2.847-.855.654-.569.981-1.392.981-2.467 0-1.076-.327-1.909-.981-2.5-.633-.59-1.582-.885-2.847-.885h-4.461v6.707h4.461zM174.005 34a.733.733 0 01-.538-.221.73.73 0 01-.221-.538V12.646a.85.85 0 01.189-.57.773.773 0 01.57-.22h13.919c.232 0 .422.073.57.22a.773.773 0 01.221.57v2.088a.773.773 0 01-.221.57.846.846 0 01-.57.19h-10.408v5.599h9.712c.232 0 .422.074.57.221.147.127.221.306.221.538v1.962a.773.773 0 01-.221.569.846.846 0 01-.57.19h-9.712v5.789h10.661c.232 0 .422.074.57.221a.773.773 0 01.221.57v2.088a.773.773 0 01-.221.57.846.846 0 01-.57.189h-14.172z" fill="#40A3F8"/><rect x="194" y="29" width="7" height="7" rx="3.5" fill="#40A3F8"/></svg>