<svg width="92" height="92" fill="none" xmlns="http://www.w3.org/2000/svg"><g filter="url(#filter0_d)" fill="#FF6457"><path d="M70 42c0 13.255-10.745 24-24 24S22 55.255 22 42s10.745-24 24-24 24 10.745 24 24z"/><path d="M70 42c0 13.255-10.745 24-24 24S22 55.255 22 42s10.745-24 24-24 24 10.745 24 24z"/><path fill-rule="evenodd" clip-rule="evenodd" d="M48.68 34c.505 0 1.009.072 1.488.233 2.953.96 4.017 4.2 3.128 7.032a10.182 10.182 0 01-2.407 3.847 30.77 30.77 0 01-5.065 3.968l-.2.12-.208-.128a30.475 30.475 0 01-5.095-3.968 10.346 10.346 0 01-2.409-3.84c-.904-2.831.16-6.071 3.145-7.048.232-.08.471-.136.711-.167h.096c.225-.033.448-.048.672-.048h.088a4.99 4.99 0 011.465.264h.047a.28.28 0 01.072.047c.177.057.344.12.504.209l.304.136c.074.039.156.099.227.15a2.043 2.043 0 00.157.105c.068.04.14.082.2.128A5.01 5.01 0 0148.68 34zm2.128 5.76a.658.658 0 00.632-.608v-.096a2.64 2.64 0 00-1.688-2.527.64.64 0 00-.808.4.654.654 0 00.4.823c.513.192.856.697.856 1.256v.024c-.015.184.04.36.152.497a.67.67 0 00.456.231z"/><path fill-rule="evenodd" clip-rule="evenodd" d="M48.68 34c.505 0 1.009.072 1.488.233 2.953.96 4.017 4.2 3.128 7.032a10.182 10.182 0 01-2.407 3.847 30.77 30.77 0 01-5.065 3.968l-.2.12-.208-.128a30.475 30.475 0 01-5.095-3.968 10.346 10.346 0 01-2.409-3.84c-.904-2.831.16-6.071 3.145-7.048.232-.08.471-.136.711-.167h.096c.225-.033.448-.048.672-.048h.088a4.99 4.99 0 011.465.264h.047a.28.28 0 01.072.047c.177.057.344.12.504.209l.304.136c.074.039.156.099.227.15a2.043 2.043 0 00.157.105c.068.04.14.082.2.128A5.01 5.01 0 0148.68 34zm2.128 5.76a.658.658 0 00.632-.608v-.096a2.64 2.64 0 00-1.688-2.527.64.64 0 00-.808.4.654.654 0 00.4.823c.513.192.856.697.856 1.256v.024c-.015.184.04.36.152.497a.67.67 0 00.456.231z"/></g><g filter="url(#filter1_d)"><path d="M61 42c0 8.284-6.716 15-15 15-8.284 0-15-6.716-15-15 0-8.284 6.716-15 15-15 8.284 0 15 6.716 15 15z" fill="#FF6457"/><path d="M61 42c0 8.284-6.716 15-15 15-8.284 0-15-6.716-15-15 0-8.284 6.716-15 15-15 8.284 0 15 6.716 15 15z" fill="#FF917B"/><path fill-rule="evenodd" clip-rule="evenodd" d="M47.675 37c.316 0 .63.045.93.145 1.846.6 2.51 2.625 1.955 4.395a6.364 6.364 0 01-1.504 2.405 19.228 19.228 0 01-3.166 2.48l-.125.075-.13-.08a19.047 19.047 0 01-3.184-2.48 6.466 6.466 0 01-1.506-2.4c-.565-1.77.1-3.795 1.966-4.405a2.26 2.26 0 01.444-.105h.06c.14-.02.28-.03.42-.03h.055c.315.01.62.065.916.165h.03c.02.01.034.02.044.03.11.035.215.075.315.13l.19.085c.046.025.098.062.142.095l.073.05.025.015c.043.025.087.051.125.08a3.132 3.132 0 011.925-.65zm1.33 3.6a.411.411 0 00.395-.38v-.06a1.65 1.65 0 00-1.055-1.58.4.4 0 00-.505.25c-.07.21.04.44.25.515.32.12.535.435.535.785v.015a.43.43 0 00.095.31c.07.085.175.135.285.145z" fill="#FF6457"/><path fill-rule="evenodd" clip-rule="evenodd" d="M47.675 37c.316 0 .63.045.93.145 1.846.6 2.51 2.625 1.955 4.395a6.364 6.364 0 01-1.504 2.405 19.228 19.228 0 01-3.166 2.48l-.125.075-.13-.08a19.047 19.047 0 01-3.184-2.48 6.466 6.466 0 01-1.506-2.4c-.565-1.77.1-3.795 1.966-4.405a2.26 2.26 0 01.444-.105h.06c.14-.02.28-.03.42-.03h.055c.315.01.62.065.916.165h.03c.02.01.034.02.044.03.11.035.215.075.315.13l.19.085c.046.025.098.062.142.095l.073.05.025.015c.043.025.087.051.125.08a3.132 3.132 0 011.925-.65zm1.33 3.6a.411.411 0 00.395-.38v-.06a1.65 1.65 0 00-1.055-1.58.4.4 0 00-.505.25c-.07.21.04.44.25.515.32.12.535.435.535.785v.015a.43.43 0 00.095.31c.07.085.175.135.285.145z" fill="#FF917B"/></g><path d="M48.474 36.806h4.113l1.042 5.84-5.155-.95v-4.89z" fill="#fff"/><path fill-rule="evenodd" clip-rule="evenodd" d="M49.772 35a5.01 5.01 0 011.581.244c3.138 1.01 4.268 4.421 3.324 7.402a10.704 10.704 0 01-2.558 4.05 32.637 32.637 0 01-5.381 4.177l-.213.127-.22-.136a32.343 32.343 0 01-5.414-4.176 10.877 10.877 0 01-2.56-4.042c-.96-2.98.17-6.391 3.342-7.42.246-.084.5-.142.755-.175h.103c.238-.035.476-.05.714-.05h.093a5.348 5.348 0 011.556.277h.05c.034.016.06.034.077.05.188.06.365.127.535.22l.323.143c.079.04.166.104.242.158.048.035.091.066.124.086l.042.024c.073.042.149.086.213.135A5.357 5.357 0 0149.772 35zm2.261 6.063a.696.696 0 00.672-.64v-.1a2.78 2.78 0 00-1.794-2.662.682.682 0 00-.858.421.687.687 0 00.425.867c.545.202.91.733.91 1.322v.026a.72.72 0 00.16.522.714.714 0 00.485.244z" fill="#fff"/><defs><filter id="filter0_d" x="0" y="0" width="92" height="92" filterUnits="userSpaceOnUse" color-interpolation-filters="sRGB"><feFlood flood-opacity="0" result="BackgroundImageFix"/><feColorMatrix in="SourceAlpha" values="0 0 0 0 0 0 0 0 0 0 0 0 0 0 0 0 0 0 127 0" result="hardAlpha"/><feOffset dy="4"/><feGaussianBlur stdDeviation="11"/><feColorMatrix values="0 0 0 0 0 0 0 0 0 0 0 0 0 0 0 0 0 0 0.05 0"/><feBlend in2="BackgroundImageFix" result="effect1_dropShadow"/><feBlend in="SourceGraphic" in2="effect1_dropShadow" result="shape"/></filter><filter id="filter1_d" x="9" y="9" width="74" height="74" filterUnits="userSpaceOnUse" color-interpolation-filters="sRGB"><feFlood flood-opacity="0" result="BackgroundImageFix"/><feColorMatrix in="SourceAlpha" values="0 0 0 0 0 0 0 0 0 0 0 0 0 0 0 0 0 0 127 0" result="hardAlpha"/><feOffset dy="4"/><feGaussianBlur stdDeviation="11"/><feColorMatrix values="0 0 0 0 0 0 0 0 0 0 0 0 0 0 0 0 0 0 0.05 0"/><feBlend in2="BackgroundImageFix" result="effect1_dropShadow"/><feBlend in="SourceGraphic" in2="effect1_dropShadow" result="shape"/></filter></defs></svg>