<svg width="80" height="84" fill="none" xmlns="http://www.w3.org/2000/svg"><path d="M16.98 34.108c7.517-10.193 36.322-30.413 46.514-22.896 10.192 7.516-2.088 39.923-9.604 50.115l-8.376 11.357c-7.516 10.192-21.872 12.361-32.064 4.845C3.258 70.012 1.088 55.657 8.605 45.464l8.375-11.356z" fill="url(#paint0_linear)"/><g filter="url(#filter0_b)"><path d="M65.795 6.55C55.603-.968 41.247 1.201 33.731 11.393L20.12 29.85l36.91 27.22 13.61-18.455c7.516-10.192 5.347-24.548-4.846-32.065z" fill="#fff" fill-opacity=".2"/></g><path fill-rule="evenodd" clip-rule="evenodd" d="M36.792 17.084C42.094 6.49 52.48 5.385 57.365 7.378a2.77 2.77 0 01-2.093 5.13c-2.419-.987-9.62-.747-13.525 7.055a2.77 2.77 0 11-4.955-2.48z" fill="#fff"/><defs><linearGradient id="paint0_linear" x1="3.097" y1="46.467" x2="67.391" y2="41.819" gradientUnits="userSpaceOnUse"><stop stop-color="#AA80FF"/><stop offset="1" stop-color="#A071FF" stop-opacity=".65"/></linearGradient><filter id="filter0_b" x="-6.811" y="-24.61" width="109.328" height="109.328" filterUnits="userSpaceOnUse" color-interpolation-filters="sRGB"><feFlood flood-opacity="0" result="BackgroundImageFix"/><feGaussianBlur in="BackgroundImage" stdDeviation="12.5"/><feComposite in2="SourceAlpha" operator="in" result="effect1_backgroundBlur"/><feBlend in="SourceGraphic" in2="effect1_backgroundBlur" result="shape"/></filter></defs></svg>