<svg width="156" height="46" fill="none" xmlns="http://www.w3.org/2000/svg"><path d="M0 5a5 5 0 015-5h146a5 5 0 015 5v36a5 5 0 01-5 5H5a5 5 0 01-5-5V5z" fill="#000"/><path d="M78.735 25.014c-2.718 0-4.933 2.057-4.933 4.89 0 2.817 2.215 4.892 4.933 4.892 2.719 0 4.934-2.075 4.934-4.891-.001-2.834-2.216-4.891-4.934-4.891zm0 7.857c-1.49 0-2.773-1.223-2.773-2.965 0-1.76 1.285-2.965 2.773-2.965 1.49 0 2.773 1.204 2.773 2.965 0 1.741-1.284 2.965-2.773 2.965zm-10.763-7.857c-2.718 0-4.933 2.057-4.933 4.89 0 2.817 2.215 4.892 4.933 4.892 2.72 0 4.934-2.075 4.934-4.891 0-2.834-2.215-4.891-4.934-4.891zm0 7.857c-1.49 0-2.773-1.223-2.773-2.965 0-1.76 1.285-2.965 2.773-2.965 1.49 0 2.773 1.204 2.773 2.965.002 1.741-1.283 2.965-2.773 2.965zm-12.801-6.355v2.074h4.99c-.15 1.168-.54 2.02-1.136 2.612-.726.722-1.862 1.52-3.854 1.52-3.072 0-5.473-2.465-5.473-5.522 0-3.057 2.401-5.521 5.473-5.521 1.657 0 2.867.648 3.76 1.482l1.471-1.464c-1.248-1.185-2.904-2.093-5.231-2.093-4.207 0-7.745 3.409-7.745 7.596s3.538 7.596 7.745 7.596c2.27 0 3.984-.742 5.324-2.131 1.377-1.371 1.806-3.298 1.806-4.854 0-.481-.037-.926-.113-1.296h-7.017zm52.356 1.61c-.409-1.092-1.657-3.112-4.208-3.112-2.531 0-4.636 1.983-4.636 4.89 0 2.742 2.086 4.892 4.878 4.892 2.252 0 3.556-1.371 4.096-2.168l-1.675-1.112c-.558.815-1.322 1.352-2.421 1.352-1.098 0-1.88-.5-2.383-1.482l6.572-2.705-.223-.554zm-6.702 1.632c-.056-1.891 1.471-2.854 2.569-2.854.857 0 1.582.427 1.825 1.038l-4.394 1.816zM95.482 34.5h2.159V20.124h-2.159V34.5zm-3.538-8.392h-.074c-.484-.576-1.415-1.094-2.587-1.094-2.458 0-4.71 2.15-4.71 4.91 0 2.742 2.252 4.873 4.71 4.873 1.173 0 2.103-.519 2.587-1.111h.074v.704c0 1.87-1.005 2.871-2.624 2.871-1.322 0-2.141-.944-2.476-1.74l-1.88.778c.539 1.296 1.972 2.89 4.356 2.89 2.532 0 4.673-1.483 4.673-5.096v-8.781h-2.048v.796zM89.47 32.87c-1.49 0-2.736-1.242-2.736-2.947 0-1.723 1.246-2.983 2.736-2.983 1.47 0 2.624 1.26 2.624 2.983 0 1.705-1.154 2.947-2.624 2.947zm28.173-12.747h-5.166V34.5h2.155v-5.446h3.01c2.39 0 4.74-1.722 4.74-4.464 0-2.743-2.349-4.466-4.739-4.466zm.056 6.929h-3.067v-4.928h3.067c1.612 0 2.527 1.328 2.527 2.465 0 1.113-.915 2.463-2.527 2.463zm13.326-2.065c-1.561 0-3.178.685-3.847 2.202l1.914.794c.409-.794 1.171-1.054 1.97-1.054 1.115 0 2.249.666 2.267 1.849v.148c-.391-.222-1.227-.554-2.249-.554-2.062 0-4.163 1.128-4.163 3.236 0 1.924 1.692 3.163 3.587 3.163 1.449 0 2.248-.648 2.75-1.407h.074v1.11h2.082v-5.512c.001-2.55-1.915-3.975-4.385-3.975zm-.261 7.88c-.705 0-1.691-.353-1.691-1.222 0-1.11 1.227-1.535 2.287-1.535.946 0 1.394.203 1.969.48a2.61 2.61 0 01-2.565 2.276zm12.229-7.566l-2.472 6.233h-.074l-2.565-6.233h-2.323l3.847 8.712-2.193 4.846h2.249l5.929-13.558h-2.398zm-19.42 9.198h2.155V20.124h-2.155V34.5zM54.794 11.78c0 .963-.286 1.73-.86 2.303-.652.68-1.503 1.021-2.547 1.021-1.001 0-1.853-.345-2.552-1.035-.7-.691-1.05-1.547-1.05-2.568 0-1.022.35-1.878 1.05-2.568.7-.691 1.55-1.036 2.551-1.036.497 0 .972.097 1.423.289.452.193.814.45 1.084.77l-.61.607c-.458-.546-1.09-.818-1.898-.818-.73 0-1.36.255-1.894.765-.532.511-.798 1.175-.798 1.99s.266 1.479.798 1.99c.533.51 1.164.765 1.894.765.775 0 1.42-.256 1.937-.77.335-.335.53-.8.581-1.397h-2.518v-.83h3.36c.034.181.05.355.05.521zm5.327-2.882h-3.157v2.187h2.848v.829h-2.848v2.187h3.157v.849h-4.047v-6.9h4.047v.848zm3.757 6.052h-.89V8.898H61.05V8.05h4.765v.848h-1.937v6.052zm5.384 0v-6.9h.89v6.9h-.89zm4.842 0h-.891V8.898h-1.937V8.05h4.764v.848h-1.936v6.052zm10.956-.891c-.683.697-1.53 1.045-2.543 1.045-1.013 0-1.86-.348-2.541-1.045-.682-.697-1.022-1.55-1.022-2.559 0-1.008.34-1.862 1.022-2.559.68-.697 1.528-1.046 2.541-1.046 1.008 0 1.854.35 2.538 1.05.684.701 1.026 1.552 1.026 2.555 0 1.009-.341 1.862-1.022 2.559zm-4.427-.579c.514.518 1.141.775 1.884.775.743 0 1.372-.258 1.883-.775.514-.517.771-1.177.771-1.98 0-.803-.257-1.463-.77-1.98-.512-.518-1.141-.775-1.884-.775-.743 0-1.37.258-1.884.775-.511.517-.77 1.177-.77 1.98 0 .803.258 1.463.77 1.98zm6.698 1.47v-6.9h1.084l3.37 5.367h.038l-.038-1.33V8.05h.89v6.9h-.93L88.22 9.322h-.038l.038 1.33v4.298h-.889z" fill="#fff"/><path d="M54.794 11.78c0 .963-.286 1.73-.86 2.303-.652.68-1.503 1.021-2.547 1.021-1.001 0-1.853-.345-2.552-1.035-.7-.691-1.05-1.547-1.05-2.568 0-1.022.35-1.878 1.05-2.568.7-.691 1.55-1.036 2.551-1.036.497 0 .972.097 1.423.289.452.193.814.45 1.084.77l-.61.607c-.458-.546-1.09-.818-1.898-.818-.73 0-1.36.255-1.894.765-.532.511-.798 1.175-.798 1.99s.266 1.479.798 1.99c.533.51 1.164.765 1.894.765.775 0 1.42-.256 1.937-.77.335-.335.53-.8.581-1.397h-2.518v-.83h3.36c.034.181.05.355.05.521zm5.327-2.882h-3.157v2.187h2.848v.829h-2.848v2.187h3.157v.849h-4.047v-6.9h4.047v.848zm3.757 6.052h-.89V8.898H61.05V8.05h4.765v.848h-1.937v6.052zm5.384 0v-6.9h.89v6.9h-.89zm4.842 0h-.891V8.898h-1.937V8.05h4.764v.848h-1.936v6.052zm10.956-.891c-.683.697-1.53 1.045-2.543 1.045-1.013 0-1.86-.348-2.541-1.045-.682-.697-1.022-1.55-1.022-2.559 0-1.008.34-1.862 1.022-2.559.68-.697 1.528-1.046 2.541-1.046 1.008 0 1.854.35 2.538 1.05.684.701 1.026 1.552 1.026 2.555 0 1.009-.341 1.862-1.022 2.559zm-4.427-.579c.514.518 1.141.775 1.884.775.743 0 1.372-.258 1.883-.775.514-.517.771-1.177.771-1.98 0-.803-.257-1.463-.77-1.98-.512-.518-1.141-.775-1.884-.775-.743 0-1.37.258-1.884.775-.511.517-.77 1.177-.77 1.98 0 .803.258 1.463.77 1.98zm6.698 1.47v-6.9h1.084l3.37 5.367h.038l-.038-1.33V8.05h.89v6.9h-.93L88.22 9.322h-.038l.038 1.33v4.298h-.889z" stroke="#fff" stroke-width=".2" stroke-miterlimit="10"/><g filter="url(#filter0_ii)"><path d="M12.06 8.669c-.337.354-.536.904-.536 1.615v25.434c0 .713.2 1.261.535 1.616l.086.082L26.46 23.17v-.336L12.145 8.585l-.086.084z" fill="url(#paint0_linear)"/><path d="M31.232 27.92l-4.77-4.751v-.336l4.771-4.75.108.062 5.654 3.197c1.614.913 1.614 2.407 0 3.32l-5.654 3.198-.109.06z" fill="url(#paint1_linear)"/><g filter="url(#filter1_i)"><path d="M31.341 27.859L26.46 23l-14.4 14.333c.53.56 1.41.63 2.4.07l16.881-9.545z" fill="url(#paint2_linear)"/></g><path d="M31.341 18.143L14.461 8.6c-.99-.56-1.87-.49-2.402.07l14.402 14.333 4.88-4.858z" fill="url(#paint3_linear)"/></g><path d="M5 1h146v-2H5v2zm150 4v36h2V5h-2zm-4 40H5v2h146v-2zM1 41V5h-2v36h2zm4 4a4 4 0 01-4-4h-2a6 6 0 006 6v-2zm150-4a4 4 0 01-4 4v2a6 6 0 006-6h-2zm-4-40a4 4 0 014 4h2a6 6 0 00-6-6v2zM5-1a6 6 0 00-6 6h2a4 4 0 014-4v-2z" fill="#A6A6A6"/><defs><linearGradient id="paint0_linear" x1="25.192" y1="10.015" x2="5.893" y2="29.408" gradientUnits="userSpaceOnUse"><stop stop-color="#00A0FF"/><stop offset=".007" stop-color="#00A1FF"/><stop offset=".26" stop-color="#00BEFF"/><stop offset=".512" stop-color="#00D2FF"/><stop offset=".76" stop-color="#00DFFF"/><stop offset="1" stop-color="#00E3FF"/></linearGradient><linearGradient id="paint1_linear" x1="39.096" y1="23.001" x2="11.137" y2="23.001" gradientUnits="userSpaceOnUse"><stop stop-color="#FFE000"/><stop offset=".409" stop-color="#FFBD00"/><stop offset=".775" stop-color="orange"/><stop offset="1" stop-color="#FF9C00"/></linearGradient><linearGradient id="paint2_linear" x1="28.69" y1="25.639" x2="2.518" y2="51.938" gradientUnits="userSpaceOnUse"><stop stop-color="#FF3A44"/><stop offset="1" stop-color="#C31162"/></linearGradient><linearGradient id="paint3_linear" x1="8.433" y1=".203" x2="20.119" y2="11.946" gradientUnits="userSpaceOnUse"><stop stop-color="#32A071"/><stop offset=".069" stop-color="#2DA771"/><stop offset=".476" stop-color="#15CF74"/><stop offset=".801" stop-color="#06E775"/><stop offset="1" stop-color="#00F076"/></linearGradient><filter id="filter0_ii" x="11.524" y="8.212" width="26.681" height="29.579" filterUnits="userSpaceOnUse" color-interpolation-filters="sRGB"><feFlood flood-opacity="0" result="BackgroundImageFix"/><feBlend in="SourceGraphic" in2="BackgroundImageFix" result="shape"/><feColorMatrix in="SourceAlpha" values="0 0 0 0 0 0 0 0 0 0 0 0 0 0 0 0 0 0 127 0" result="hardAlpha"/><feOffset dy="-.15"/><feComposite in2="hardAlpha" operator="arithmetic" k2="-1" k3="1"/><feColorMatrix values="0 0 0 0 0 0 0 0 0 0 0 0 0 0 0 0 0 0 0.12 0"/><feBlend in2="shape" result="effect1_innerShadow"/><feColorMatrix in="SourceAlpha" values="0 0 0 0 0 0 0 0 0 0 0 0 0 0 0 0 0 0 127 0" result="hardAlpha"/><feOffset dy=".15"/><feComposite in2="hardAlpha" operator="arithmetic" k2="-1" k3="1"/><feColorMatrix values="0 0 0 0 1 0 0 0 0 1 0 0 0 0 1 0 0 0 0.25 0"/><feBlend in2="effect1_innerShadow" result="effect2_innerShadow"/></filter><filter id="filter1_i" x="12.059" y="23.001" width="19.282" height="14.79" filterUnits="userSpaceOnUse" color-interpolation-filters="sRGB"><feFlood flood-opacity="0" result="BackgroundImageFix"/><feBlend in="SourceGraphic" in2="BackgroundImageFix" result="shape"/><feColorMatrix in="SourceAlpha" values="0 0 0 0 0 0 0 0 0 0 0 0 0 0 0 0 0 0 127 0" result="hardAlpha"/><feOffset dy="-.15"/><feComposite in2="hardAlpha" operator="arithmetic" k2="-1" k3="1"/><feColorMatrix values="0 0 0 0 0 0 0 0 0 0 0 0 0 0 0 0 0 0 0.08 0"/><feBlend in2="shape" result="effect1_innerShadow"/></filter></defs></svg>