<svg width="77" height="77" fill="none" xmlns="http://www.w3.org/2000/svg"><g opacity=".8"><path d="M47.121 40.306a3.162 3.162 0 01-1.58-.458l-7.59-4.523-7.544 4.523a3.162 3.162 0 11-3.257-5.424l10.8-6.483 10.8 6.483a3.163 3.163 0 01-1.629 5.882z" fill="#40A3F8"/><path d="M8.223 75.9a4.917 4.917 0 01-1.582-.3c-1.897-.648-4.459-2.609-5.534-8.143v-.206a129.662 129.662 0 01-.728-26.47c.886-11.243 2.783-15.923 4.143-18.47a35.941 35.941 0 0114.374-14.23l.585-.333h.68a7.906 7.906 0 018.555 7.18l2.751 31.23a22.975 22.975 0 01-3.368 15.511c-1.328 1.993-3.479 3.732-7.748 7.195-6.673 5.455-9.836 7.037-12.128 7.037zm-.902-9.487a7.385 7.385 0 001.155 3.163 39.327 39.327 0 007.906-5.487 39.276 39.276 0 006.467-5.788 16.824 16.824 0 002.325-11.385l-2.752-31.578a1.581 1.581 0 00-.553-1.106c-.184-.152-.4-.26-.633-.317a28.985 28.985 0 00-11.069 11.322c-.68 1.218-2.593 4.807-3.478 16.034-.647 8.38-.436 16.805.632 25.142zM67.678 75.9c-2.277 0-5.44-1.58-12.128-7.052-4.27-3.463-6.42-5.202-7.749-7.195a23.039 23.039 0 01-3.352-15.56l2.72-31.308a7.906 7.906 0 018.555-7.18h.68l.521.396A35.942 35.942 0 0171.3 22.233c1.36 2.545 3.257 7.242 4.143 18.469.678 8.828.45 17.703-.68 26.486v.205c-1.075 5.535-3.574 7.495-5.471 8.16a4.92 4.92 0 01-1.613.347zM54.664 13.947a1.58 1.58 0 00-.632.316c-.32.27-.52.658-.554 1.075L50.727 46.71a16.888 16.888 0 002.323 11.45 39.28 39.28 0 006.468 5.787 39.327 39.327 0 007.906 5.487 7.384 7.384 0 001.154-3.162 123.234 123.234 0 00.633-25.08c-.886-11.147-2.8-14.737-3.416-15.89a28.968 28.968 0 00-11.132-11.354z" fill="#40A3F8"/><g filter="url(#filter0_b)"><path d="M36.96 33.88a3.08 3.08 0 01-3.08-3.08V3.08a3.08 3.08 0 116.16 0V30.8a3.08 3.08 0 01-3.08 3.08z" fill="#40A3F8"/></g></g><defs><filter id="filter0_b" x="8.88" y="-25" width="56.16" height="83.88" filterUnits="userSpaceOnUse" color-interpolation-filters="sRGB"><feFlood flood-opacity="0" result="BackgroundImageFix"/><feGaussianBlur in="BackgroundImage" stdDeviation="12.5"/><feComposite in2="SourceAlpha" operator="in" result="effect1_backgroundBlur"/><feBlend in="SourceGraphic" in2="effect1_backgroundBlur" result="shape"/></filter></defs></svg>