<svg width="40" height="40" fill="none" xmlns="http://www.w3.org/2000/svg"><g clip-path="url(#clip0)"><path fill-rule="evenodd" clip-rule="evenodd" d="M20.5 2C30.717 2 39 10.283 39 20.5S30.717 39 20.5 39 2 30.717 2 20.5 10.283 2 20.5 2z" fill="url(#paint0_linear)"/><path d="M21.632 16.012h4.272c.31 0 .57.107.784.32.213.213.32.475.32.784v3.872c0 1.835-.384 3.28-1.152 4.336-.619.864-1.595 1.648-2.928 2.352a1.02 1.02 0 01-.848.048 1.071 1.071 0 01-.656-.56l-.368-.704a1.034 1.034 0 01-.08-.816c.096-.288.272-.507.528-.656.63-.363 1.093-.725 1.392-1.088.235-.288.405-.581.512-.88a.623.623 0 000-.48.78.78 0 00-.336-.384 1.037 1.037 0 00-.544-.144h-.896c-.31 0-.57-.107-.784-.32a1.047 1.047 0 01-.32-.768v-3.808c0-.31.107-.57.32-.784.224-.213.485-.32.784-.32zm-7.536 0h4.272c.31 0 .57.107.784.32.213.213.32.475.32.784v3.872c0 1.835-.384 3.28-1.152 4.336-.619.864-1.595 1.648-2.928 2.352a1.02 1.02 0 01-.848.048 1.13 1.13 0 01-.656-.56l-.368-.704a1.034 1.034 0 01-.08-.816c.096-.288.272-.507.528-.656.65-.373 1.115-.736 1.392-1.088.235-.288.405-.581.512-.88a.623.623 0 000-.48.78.78 0 00-.336-.384 1.037 1.037 0 00-.544-.144h-.896c-.299 0-.555-.107-.768-.32a1.047 1.047 0 01-.32-.768v-3.808c0-.31.107-.57.32-.784.213-.213.47-.32.768-.32z" fill="#fff"/></g><defs><linearGradient id="paint0_linear" x1="0" y1="18.667" x2="71.57" y2="37.875" gradientUnits="userSpaceOnUse"><stop stop-color="#47C2FF"/><stop offset="1" stop-color="#63CBFE" stop-opacity=".65"/></linearGradient><clipPath id="clip0"><path fill="#fff" d="M0 0h40v40H0z"/></clipPath></defs></svg>