<svg width="122" height="36" fill="none" xmlns="http://www.w3.org/2000/svg"><path fill-rule="evenodd" clip-rule="evenodd" d="M14.288 5.74a.749.749 0 00-.641-.514l-4.079-.374L7.963 1.09a.75.75 0 00-1.38 0L4.975 4.852.901 5.22a.75.75 0 00-.426 1.319l3.079 2.699-.908 3.997a.75.75 0 001.116.81l3.515-2.099 3.51 2.1a.75.75 0 001.117-.81l-.908-3.997 3.079-2.7a.75.75 0 00.219-.796l-.006-.001z" fill="url(#paint0_linear)"/><path fill-rule="evenodd" clip-rule="evenodd" d="M35.92 5.74a.749.749 0 00-.642-.514L31.2 4.852 29.595 1.09a.75.75 0 00-1.38 0l-1.61 3.763-4.072.367a.75.75 0 00-.426 1.319l3.078 2.699-.907 3.997a.75.75 0 001.115.81l3.516-2.099 3.51 2.1a.75.75 0 001.116-.81l-.907-3.997 3.078-2.7a.75.75 0 00.22-.796l-.006-.001z" fill="url(#paint1_linear)"/><path fill-rule="evenodd" clip-rule="evenodd" d="M57.552 5.74a.749.749 0 00-.642-.514l-4.078-.374-1.606-3.763a.75.75 0 00-1.379 0l-1.61 3.763-4.072.367a.75.75 0 00-.426 1.319l3.078 2.699-.907 3.997a.75.75 0 001.115.81l3.516-2.099 3.51 2.1a.75.75 0 001.116-.81l-.907-3.997 3.078-2.7a.75.75 0 00.22-.796l-.006-.001z" fill="url(#paint2_linear)"/><path fill-rule="evenodd" clip-rule="evenodd" d="M100.815 5.74a.749.749 0 00-.641-.514l-4.079-.374L94.49 1.09a.75.75 0 00-1.38 0l-1.609 3.763-4.073.367a.75.75 0 00-.426 1.319l3.079 2.699-.908 3.997a.75.75 0 001.116.81l3.515-2.099 3.51 2.1a.75.75 0 001.117-.81l-.908-3.997 3.079-2.7a.75.75 0 00.219-.796l-.006-.001z" fill="url(#paint3_linear)"/><path fill-rule="evenodd" clip-rule="evenodd" d="M79.184 5.74a.749.749 0 00-.642-.514l-4.078-.374-1.606-3.763a.75.75 0 00-1.38 0L69.87 4.852l-4.073.367a.75.75 0 00-.426 1.319l3.078 2.699-.907 3.997a.75.75 0 001.115.81l3.516-2.099 3.51 2.1a.75.75 0 001.116-.81l-.907-3.997 3.078-2.7a.75.75 0 00.22-.796l-.006-.001z" fill="url(#paint4_linear)"/><path fill-rule="evenodd" clip-rule="evenodd" d="M.964 22.797c0-.52.243-.962.729-1.329.486-.366 1.073-.55 1.76-.55h115.982c.688 0 1.275.184 1.761.55.486.367.729.81.729 1.329 0 .518-.243.96-.729 1.328-.486.366-1.073.55-1.761.55H3.454c-.688 0-1.275-.184-1.761-.55-.486-.367-.73-.81-.73-1.328zm0 10.518c0-.519.2-.961.602-1.328.402-.367.887-.55 1.455-.55h95.81c.568 0 1.053.183 1.455.55.402.367.603.81.603 1.328 0 .519-.201.962-.603 1.328-.402.367-.887.55-1.455.55H3.021a2.081 2.081 0 01-1.455-.55c-.402-.367-.602-.81-.602-1.328z" fill="#E4F3FF"/><defs><linearGradient id="paint0_linear" x1="7.272" y1=".633" x2="7.272" y2="14.15" gradientUnits="userSpaceOnUse"><stop stop-color="#FFD056"/><stop offset=".745" stop-color="#F8C14F"/><stop offset="1" stop-color="#F7B73B"/></linearGradient><linearGradient id="paint1_linear" x1="28.903" y1=".633" x2="28.903" y2="14.15" gradientUnits="userSpaceOnUse"><stop stop-color="#FFD056"/><stop offset=".745" stop-color="#F8C14F"/><stop offset="1" stop-color="#F7B73B"/></linearGradient><linearGradient id="paint2_linear" x1="50.535" y1=".633" x2="50.535" y2="14.15" gradientUnits="userSpaceOnUse"><stop stop-color="#FFD056"/><stop offset=".745" stop-color="#F8C14F"/><stop offset="1" stop-color="#F7B73B"/></linearGradient><linearGradient id="paint3_linear" x1="93.799" y1=".633" x2="93.799" y2="14.15" gradientUnits="userSpaceOnUse"><stop stop-color="#FFD056"/><stop offset=".745" stop-color="#F8C14F"/><stop offset="1" stop-color="#F7B73B"/></linearGradient><linearGradient id="paint4_linear" x1="72.167" y1=".633" x2="72.167" y2="14.15" gradientUnits="userSpaceOnUse"><stop stop-color="#FFD056"/><stop offset=".745" stop-color="#F8C14F"/><stop offset="1" stop-color="#F7B73B"/></linearGradient></defs></svg>