<svg width="12" height="12" fill="none" xmlns="http://www.w3.org/2000/svg"><path d="M12 4.65c0-.186-.135-.302-.404-.348l-3.62-.552L6.353.31C6.263.103 6.144 0 6 0s-.262.103-.353.31L4.024 3.75l-3.62.552C.134 4.348 0 4.464 0 4.65c0 .106.06.227.18.363L2.805 7.69l-.62 3.78c-.01.071-.014.122-.014.152 0 .106.025.195.075.268.05.074.127.11.228.11a.59.59 0 00.288-.09L6 10.124l3.238 1.784c.101.06.197.091.288.091a.25.25 0 00.22-.11.462.462 0 00.076-.268c0-.066-.002-.116-.007-.151l-.62-3.781 2.617-2.677c.126-.13.188-.252.188-.363z" fill="#FFC107"/></svg>