<svg width="32" height="33" fill="none" xmlns="http://www.w3.org/2000/svg"><path fill-rule="evenodd" clip-rule="evenodd" d="M16 .392c-8.837 0-16 7.164-16 16 0 8.837 7.163 16 16 16s16-7.163 16-16c0-8.836-7.163-16-16-16zm-.446 13.558l-.033-.553c-.1-1.435.783-2.746 2.182-3.254.515-.181 1.388-.204 1.959-.046.224.068.649.294.951.498l.548.372.605-.192c.336-.101.783-.27.985-.384.19-.101.358-.158.358-.124 0 .192-.414.847-.761 1.209-.47.508-.336.554.615.215.571-.193.582-.193.47.022-.067.113-.414.509-.783.87-.627.622-.66.69-.66 1.21 0 .801-.38 2.474-.761 3.389-.706 1.717-2.216 3.491-3.727 4.384-2.127 1.254-4.958 1.57-7.342.836-.795-.249-2.16-.882-2.16-.995 0-.033.414-.079.918-.09a6.301 6.301 0 003-.836l.603-.362-.693-.237c-.985-.339-1.87-1.118-2.093-1.853-.067-.237-.045-.248.582-.248l.649-.012-.549-.26c-.649-.327-1.242-.88-1.533-1.446-.212-.407-.481-1.435-.403-1.514.023-.034.258.034.526.125.772.282.873.214.426-.26-.84-.86-1.097-2.136-.694-3.345l.19-.542.739.734c1.51 1.48 3.29 2.362 5.327 2.622l.56.067z" fill="#646464"/></svg>