<svg width="32" height="31" fill="none" xmlns="http://www.w3.org/2000/svg"><circle cx="16.001" cy="15.467" r="15.467" fill="#1DA1F2"/><path fill-rule="evenodd" clip-rule="evenodd" d="M24.275 10.142a6.78 6.78 0 01-1.95.535 3.404 3.404 0 001.492-1.879 6.799 6.799 0 01-2.155.824 3.396 3.396 0 00-5.785 3.097 9.638 9.638 0 01-7-3.547 3.377 3.377 0 00-.459 1.707c0 1.177.599 2.216 1.51 2.825a3.384 3.384 0 01-1.538-.424v.042a3.4 3.4 0 002.723 3.33 3.41 3.41 0 01-1.533.058 3.4 3.4 0 003.172 2.359 6.814 6.814 0 01-5.027 1.405A9.613 9.613 0 0012.929 22c6.245 0 9.66-5.174 9.66-9.66a8.87 8.87 0 00-.01-.44 6.915 6.915 0 001.696-1.758z" fill="#fff"/></svg>