<svg width="32" height="33" fill="none" xmlns="http://www.w3.org/2000/svg"><path fill-rule="evenodd" clip-rule="evenodd" d="M16 .392c-8.837 0-16 7.164-16 16 0 8.837 7.163 16 16 16s16-7.163 16-16c0-8.836-7.163-16-16-16zm6.668 10.5a2.167 2.167 0 011.509 1.55c.357 1.366.357 4.218.357 4.218s0 2.85-.357 4.217a2.167 2.167 0 01-1.51 1.55c-1.33.366-6.667.366-6.667.366s-5.337 0-6.668-.366a2.167 2.167 0 01-1.509-1.55c-.356-1.366-.356-4.217-.356-4.217s0-2.852.356-4.218a2.167 2.167 0 011.51-1.55c1.33-.366 6.667-.366 6.667-.366s5.337 0 6.668.366z" fill="#646464"/><path fill-rule="evenodd" clip-rule="evenodd" d="M14.4 19.591v-5.333l4.267 2.667L14.4 19.59z" fill="#646464"/></svg>